<?xml version="1.0" encoding="UTF-8"?>
<svg width="25px" height="25px" viewBox="0 0 43 43" version="1.1" xmlns="http://www.w3.org/2000/svg" xmlns:xlink="http://www.w3.org/1999/xlink">
    <!-- Generator: Sketch 45.2 (43514) - http://www.bohemiancoding.com/sketch -->
    <title>Oval 3</title>
    <desc>Created with Sketch.</desc>
    <defs></defs>
    <g id="Page-1" stroke="none" stroke-width="1" fill="none" fill-rule="evenodd">
        <g id="Desktop-HD" transform="translate(-926.000000, -71.000000)">
            <g id="Oval-3" transform="translate(950.000000, 95.000000) rotate(-315.000000) translate(-950.000000, -95.000000) translate(924.000000, 76.000000)">
                <path d="M19,38 C8.50658975,38 0,29.4934102 0,19 C0,8.50658975 8.50658975,0 19,0 C29.4934102,0 38,8.50658975 38,19 C38,29.4934102 29.4934102,38 19,38 Z M19,34 C27.2842712,34 34,27.2842712 34,19 C34,10.7157288 27.2842712,4 19,4 C10.7157288,4 4,10.7157288 4,19 C4,27.2842712 10.7157288,34 19,34 Z" fill="#979797" fill-rule="nonzero"></path>
                <rect id="Rectangle-4" fill="#9B9B9B" fill-rule="evenodd" x="36" y="17" width="16" height="4" rx="2"></rect>
            </g>
        </g>
    </g>
</svg>